<svg xmlns="http://www.w3.org/2000/svg" width="386" height="276" viewBox="0 0 386 276" font-family="sans-serif" font-size="16">
  <defs>
    <marker id="mqsmn82-arrow-0" viewBox="0 0 10 11" refX="0" refY="5.5" markerUnits="userSpaceOnUse" markerWidth="10" markerHeight="11" orient="auto-start-reverse"><path d="M0,0 L10,5.5 L0,11 z" fill="#333333"/></marker>
  </defs>
  <rect width="100%" height="100%" fill="#ffffff"/>
  <g transform="translate(16,16)">
    <path d="M109,48 L109,55.5 Q109,60.5 104,60.5 L81,60.5 Q76,60.5 76,65.5 L76,88" fill="none" stroke="#333333" stroke-width="1.5" marker-end="url(#mqsmn82-arrow-0)"/>
    <path d="M245,48 L245,55.5 Q245,60.5 250,60.5 L273,60.5 Q278,60.5 278,65.5 L278,88" fill="none" stroke="#333333" stroke-width="1.5" marker-end="url(#mqsmn82-arrow-0)"/>
    <path d="M76,146 L76,178.5 Q76,183.5 81,183.5 L107.75,183.5 Q109,183.5 109,184.75 L109,186" fill="none" stroke="#333333" stroke-width="1.5" marker-end="url(#mqsmn82-arrow-0)"/>
    <path d="M278,146 L278,178.5 Q278,183.5 273,183.5 L246.25,183.5 Q245,183.5 245,184.75 L245,186" fill="none" stroke="#333333" stroke-width="1.5" marker-end="url(#mqsmn82-arrow-0)"/>
    <rect x="101" y="0" width="152" height="48" fill="#ECECFF" stroke="#9370DB"/>
    <text fill="#333333" text-anchor="middle"><tspan x="177" y="29.6">A</tspan></text>
    <rect x="0" y="98" width="152" height="48" fill="#ECECFF" stroke="#9370DB"/>
    <text fill="#333333" text-anchor="middle"><tspan x="76" y="127.6">B</tspan></text>
    <rect x="202" y="98" width="152" height="48" fill="#ECECFF" stroke="#9370DB"/>
    <text fill="#333333" text-anchor="middle"><tspan x="278" y="127.6">C</tspan></text>
    <rect x="101" y="196" width="152" height="48" fill="#ECECFF" stroke="#9370DB"/>
    <text fill="#333333" text-anchor="middle"><tspan x="177" y="225.6">D</tspan></text>
  </g>
</svg>
