<svg xmlns="http://www.w3.org/2000/svg" width="515.69" height="913.16" viewBox="0 0 515.69 913.16" font-family="sans-serif" font-size="14">
  <rect width="100%" height="100%" fill="#ffffff"/>
  <defs><marker id="m1lj8bpl-arrow" viewBox="0 0 10 10" refX="9" refY="5" markerWidth="9" markerHeight="9" markerUnits="userSpaceOnUse" orient="auto-start-reverse"><path d="M0,0 L10,5 L0,10 z" fill="#444444"/></marker></defs>
  <g transform="translate(16,16)">
    <rect x="135.5" y="165" width="273.75" height="558.16" rx="4" fill="none" stroke="#444444" stroke-dasharray="7 7"/>
    <text x="146.3" y="187" fill="#333333" font-weight="bold">Shop</text>
    <text x="146.3" y="201.56" fill="#333333" font-size="11.2">[System]</text>
    <path d="M204.86,85 L288.7,221.16" fill="none" stroke="#444444" stroke-width="1.2" marker-end="url(#m1lj8bpl-arrow)"/>
    <path d="M379.72,85 L318.97,221.16" fill="none" stroke="#444444" stroke-width="1.2" marker-end="url(#m1lj8bpl-arrow)"/>
    <path d="M306.25,278.16 C306.25,318.16 306.25,318.16 306.25,358.16" fill="none" stroke="#444444" stroke-width="1.2" marker-end="url(#m1lj8bpl-arrow)"/>
    <path d="M277.92,415.16 L277.92,469.41 L374,469.41 L374,523.66 L374,577.91 L238.5,577.91 L238.5,632.16" fill="none" stroke="#444444" stroke-width="1.2" marker-end="url(#m1lj8bpl-arrow)"/>
    <path d="M238.5,552.16 C238.5,592.16 238.5,592.16 238.5,632.16" fill="none" stroke="#444444" stroke-width="1.2" marker-end="url(#m1lj8bpl-arrow)"/>
    <path d="M334.58,415.16 C334.58,455.16 238.5,455.16 238.5,495.16" fill="none" stroke="#444444" stroke-width="1.2" marker-end="url(#m1lj8bpl-arrow)"/>
    <path d="M153.5,523.66 L85,523.66 L85,803.16" fill="none" stroke="#444444" stroke-width="1.2" marker-end="url(#m1lj8bpl-arrow)"/>
    <path d="M398.69,85 L398.69,386.66 L391.25,386.66" fill="none" stroke="#444444" stroke-width="1.2" marker-end="url(#m1lj8bpl-arrow)"/>
    <path d="M150.35,85 L150.35,264.54 L85,264.54 L56.67,444.08 L56.67,803.16" fill="none" stroke="#444444" stroke-width="1.2" marker-end="url(#m1lj8bpl-arrow)"/>
    <rect x="93.69" y="28" width="170" height="57" rx="14" fill="#08427b" stroke="#073b6f"/>
    <circle cx="178.69" cy="17.5" r="17.5" fill="#08427b" stroke="#073b6f"/>
    <text x="178.69" y="53.6" fill="#ffffff" font-size="14" text-anchor="middle" font-weight="bold">User</text>
    <text x="178.69" y="68.88" fill="#ffffff" font-size="10.92" text-anchor="middle">[Person]</text>
    <rect x="313.69" y="28" width="170" height="57" rx="14" fill="#08427b" stroke="#073b6f"/>
    <circle cx="398.69" cy="17.5" r="17.5" fill="#08427b" stroke="#073b6f"/>
    <text x="398.69" y="53.6" fill="#ffffff" font-size="14" text-anchor="middle" font-weight="bold">Admin</text>
    <text x="398.69" y="68.88" fill="#ffffff" font-size="10.92" text-anchor="middle">[Person]</text>
    <rect x="221.25" y="221.16" width="170" height="57" rx="4" fill="#438dd5" stroke="#3c7fc0"/>
    <text x="306.25" y="246.76" fill="#ffffff" font-size="14" text-anchor="middle" font-weight="bold">Web</text>
    <text x="306.25" y="262.04" fill="#ffffff" font-size="10.92" text-anchor="middle">[Container: React]</text>
    <rect x="221.25" y="358.16" width="170" height="57" rx="4" fill="#438dd5" stroke="#3c7fc0"/>
    <text x="306.25" y="383.76" fill="#ffffff" font-size="14" text-anchor="middle" font-weight="bold">API</text>
    <text x="306.25" y="399.04" fill="#ffffff" font-size="10.92" text-anchor="middle">[Container: Go]</text>
    <path d="M153.5,640.16 A85,8 0 0 1 323.5,640.16 V697.16 A85,8 0 0 1 153.5,697.16 Z" fill="#438dd5" stroke="#3c7fc0"/>
    <path d="M153.5,640.16 A85,8 0 0 0 323.5,640.16" fill="none" stroke="#3c7fc0"/>
    <text x="238.5" y="673.76" fill="#ffffff" font-size="14" text-anchor="middle" font-weight="bold">DB</text>
    <text x="238.5" y="689.04" fill="#ffffff" font-size="10.92" text-anchor="middle">[Container: Postgres]</text>
    <rect x="153.5" y="495.16" width="170" height="57" rx="4" fill="#438dd5" stroke="#3c7fc0"/>
    <text x="238.5" y="520.76" fill="#ffffff" font-size="14" text-anchor="middle" font-weight="bold">Worker</text>
    <text x="238.5" y="536.04" fill="#ffffff" font-size="10.92" text-anchor="middle">[Container: Go]</text>
    <rect x="0" y="803.16" width="170" height="78" rx="4" fill="#999999" stroke="#8a8a8a"/>
    <text x="85" y="828.53" fill="#ffffff" font-size="14" text-anchor="middle" font-weight="bold">Mail</text>
    <text x="85" y="843.8" fill="#ffffff" font-size="10.92" text-anchor="middle">[External System]</text>
    <text x="85" y="864.93" fill="#ffffff" font-size="11.9" text-anchor="middle">Resend</text>
    <rect x="215.94" y="125.63" width="48.26" height="33.12" rx="2" fill="#ffffff" fill-opacity="0.85"/>
    <text x="240.07" y="138.93" fill="#333333" font-size="11.9" text-anchor="middle">Uses</text>
    <text x="240.07" y="153.07" fill="#333333" font-size="10.5" text-anchor="middle" font-style="italic">[HTTPS]</text>
    <rect x="319.13" y="125.63" width="70.15" height="33.12" rx="2" fill="#ffffff" fill-opacity="0.85"/>
    <text x="354.21" y="138.93" fill="#333333" font-size="11.9" text-anchor="middle">Administers</text>
    <text x="354.21" y="153.07" fill="#333333" font-size="10.5" text-anchor="middle" font-style="italic">[HTTPS]</text>
    <rect x="285.33" y="301.6" width="41.84" height="33.12" rx="2" fill="#ffffff" fill-opacity="0.85"/>
    <text x="306.25" y="314.9" fill="#333333" font-size="11.9" text-anchor="middle">Calls</text>
    <text x="306.25" y="329.04" fill="#333333" font-size="10.5" text-anchor="middle" font-style="italic">[JSON]</text>
    <rect x="286.8" y="561.35" width="99.93" height="33.12" rx="2" fill="#ffffff" fill-opacity="0.85"/>
    <text x="336.77" y="574.66" fill="#333333" font-size="11.9" text-anchor="middle">Reads and writes</text>
    <text x="336.77" y="588.8" fill="#333333" font-size="10.5" text-anchor="middle" font-style="italic">[SQL]</text>
    <rect x="221.08" y="575.6" width="34.85" height="33.12" rx="2" fill="#ffffff" fill-opacity="0.85"/>
    <text x="238.5" y="588.91" fill="#333333" font-size="11.9" text-anchor="middle">Polls</text>
    <text x="238.5" y="603.05" fill="#333333" font-size="10.5" text-anchor="middle" font-style="italic">[SQL]</text>
    <rect x="255.75" y="438.6" width="61.59" height="33.12" rx="2" fill="#ffffff" fill-opacity="0.85"/>
    <text x="286.54" y="451.9" fill="#333333" font-size="11.9" text-anchor="middle">Enqueues</text>
    <text x="286.54" y="466.04" fill="#333333" font-size="10.5" text-anchor="middle" font-style="italic">[AMQP]</text>
    <rect x="87" y="723.96" width="73.47" height="33.12" rx="2" fill="#ffffff" fill-opacity="0.85"/>
    <text x="123.74" y="737.27" fill="#333333" font-size="11.9" text-anchor="middle">Sends email</text>
    <text x="123.74" y="751.41" fill="#333333" font-size="10.5" text-anchor="middle" font-style="italic">[SMTP]</text>
    <rect x="400.69" y="124.08" width="76.12" height="33.12" rx="2" fill="#ffffff" fill-opacity="0.85"/>
    <text x="438.75" y="137.38" fill="#333333" font-size="11.9" text-anchor="middle">Runs reports</text>
    <text x="438.75" y="151.52" fill="#333333" font-size="10.5" text-anchor="middle" font-style="italic">[HTTPS]</text>
    <rect x="33.47" y="389.94" width="56.93" height="33.12" rx="2" fill="#ffffff" fill-opacity="0.85"/>
    <text x="61.93" y="403.25" fill="#333333" font-size="11.9" text-anchor="middle">Receives</text>
    <text x="61.93" y="417.39" fill="#333333" font-size="10.5" text-anchor="middle" font-style="italic">[IMAP]</text>
  </g>
</svg>
