<svg role="img" xmlns="http://www.w3.org/2000/svg" width="2013.27" height="1097" viewBox="0 0 2013.27 1097" font-family="sans-serif" font-size="14">
  <g transform="translate(16,16)">
    <path d="M906.89,139 C906.89,210.5 74,210.5 74,282" fill="none" stroke="#bbbbbb" stroke-width="1.3"/>
    <path d="M1026.32,139 C1026.32,193.75 1426.47,193.75 1426.47,248.5" fill="none" stroke="#bbbbbb" stroke-width="1.3"/>
    <path d="M1572.01,139 C1572.01,193.75 1487.14,193.75 1487.14,248.5" fill="none" stroke="#bbbbbb" stroke-width="1.3"/>
    <path d="M1655.61,139 C1655.61,210.5 1907.27,210.5 1907.27,282" fill="none" stroke="#bbbbbb" stroke-width="1.3"/>
    <path d="M1530.21,139 C1530.21,187 1224.81,187 1224.81,235" fill="none" stroke="#bbbbbb" stroke-width="1.3"/>
    <path d="M1159.81,374 L1159.81,463.5 L1106.54,463.5 L1106.54,553 L1106.54,642.5 L740.27,642.5 L740.27,732" fill="none" stroke="#bbbbbb" stroke-width="1.3"/>
    <path d="M1185.81,374 C1185.81,452.25 856.04,452.25 856.04,530.5" fill="none" stroke="#bbbbbb" stroke-width="1.3"/>
    <path d="M1211.81,374 C1211.81,452.25 1005.54,452.25 1005.54,530.5" fill="none" stroke="#bbbbbb" stroke-width="1.3"/>
    <path d="M1263.81,374 C1263.81,428.75 1384.04,428.75 1384.04,483.5" fill="none" stroke="#bbbbbb" stroke-width="1.3"/>
    <path d="M1237.81,374 C1237.81,452.25 1206.04,452.25 1206.04,530.5" fill="none" stroke="#bbbbbb" stroke-width="1.3"/>
    <path d="M856.04,575.5 C856.04,653.75 655.07,653.75 655.07,732" fill="none" stroke="#bbbbbb" stroke-width="1.3"/>
    <path d="M1005.54,575.5 C1005.54,653.75 711.87,653.75 711.87,732" fill="none" stroke="#bbbbbb" stroke-width="1.3"/>
    <path d="M776.67,814 C832.67,780.4 832.67,875.6 776.67,842" fill="none" stroke="#bbbbbb" stroke-width="1.3"/>
    <path d="M674.01,924 C674.01,972 663.61,972 663.61,1020" fill="none" stroke="#bbbbbb" stroke-width="1.3"/>
    <path d="M721.34,924 C721.34,972 830.97,972 830.97,1020" fill="none" stroke="#bbbbbb" stroke-width="1.3"/>
    <path d="M1206.04,575.5 L1206.04,701.75 L944.91,701.75 L944.91,828 L944.91,924 L867.97,924 L867.97,1020" fill="none" stroke="#bbbbbb" stroke-width="1.3"/>
    <path d="M1463.04,539 C1519.04,505.4 1519.04,600.6 1463.04,567" fill="none" stroke="#bbbbbb" stroke-width="1.3"/>
    <path d="M936.75,139 L936.75,221.75 L756.54,221.75 L756.54,304.5 L683.47,553 L683.47,732" fill="none" stroke="#bbbbbb" stroke-width="1.3"/>
    <path d="M966.6,139 C966.6,210.5 856.04,210.5 856.04,282" fill="none" stroke="#bbbbbb" stroke-width="1.3"/>
    <path d="M1056.18,139 L1056.18,221.75 L1731.77,221.75 L1681.27,304.5 L1681.27,470" fill="none" stroke="#bbbbbb" stroke-width="1.3"/>
    <path d="M996.46,139 C996.46,210.5 1014.04,210.5 1014.04,282" fill="none" stroke="#bbbbbb" stroke-width="1.3"/>
    <path d="M1613.81,139 L1613.81,221.75 L1782.77,221.75 L1782.77,304.5 L1782.77,387.25 L1782.27,387.25 L1782.27,470" fill="none" stroke="#bbbbbb" stroke-width="1.3"/>
    <path d="M1289.81,374 C1289.81,422 1731.77,422 1731.77,470" fill="none" stroke="#bbbbbb" stroke-width="1.3"/>
    <rect x="877.03" y="0" width="209" height="139" fill="#2b2b40" stroke="#8888bb"/>
    <text fill="#e6e6e6" font-size="14" text-anchor="middle"><tspan x="981.53" y="21">users</tspan></text>
    <rect x="877.53" y="32.2" width="208" height="26.6" fill="#1e1e1e"/>
    <text fill="#e6e6e6" font-size="13.3" text-anchor="start"><tspan x="885.43" y="50.15">bigint</tspan></text>
    <text fill="#e6e6e6" font-size="13.3" text-anchor="start"><tspan x="973.92" y="50.15">id</tspan></text>
    <text fill="#e6e6e6" font-size="13.3" text-anchor="start"><tspan x="1058.74" y="50.15">PK</tspan></text>
    <rect x="877.53" y="58.8" width="208" height="26.6" fill="#25252e"/>
    <text fill="#e6e6e6" font-size="13.3" text-anchor="start"><tspan x="885.43" y="76.75">text</tspan></text>
    <text fill="#e6e6e6" font-size="13.3" text-anchor="start"><tspan x="973.92" y="76.75">email</tspan></text>
    <text fill="#e6e6e6" font-size="13.3" text-anchor="start"><tspan x="1058.74" y="76.75">UK</tspan></text>
    <rect x="877.53" y="85.4" width="208" height="26.6" fill="#1e1e1e"/>
    <text fill="#e6e6e6" font-size="13.3" text-anchor="start"><tspan x="885.43" y="103.35">boolean</tspan></text>
    <text fill="#e6e6e6" font-size="13.3" text-anchor="start"><tspan x="973.92" y="103.35">bot</tspan></text>
    <rect x="877.53" y="112" width="208" height="26.6" fill="#25252e"/>
    <text fill="#e6e6e6" font-size="13.3" text-anchor="start"><tspan x="885.43" y="129.95">timestamptz</tspan></text>
    <text fill="#e6e6e6" font-size="13.3" text-anchor="start"><tspan x="973.92" y="129.95">disabled_at</tspan></text>
    <line x1="877.03" y1="32.2" x2="1086.03" y2="32.2" stroke="#8888bb"/>
    <line x1="877.03" y1="58.8" x2="1086.03" y2="58.8" stroke="#8888bb" stroke-opacity="0.35"/>
    <line x1="877.03" y1="85.4" x2="1086.03" y2="85.4" stroke="#8888bb" stroke-opacity="0.35"/>
    <line x1="877.03" y1="112" x2="1086.03" y2="112" stroke="#8888bb" stroke-opacity="0.35"/>
    <line x1="965.52" y1="32.2" x2="965.52" y2="139" stroke="#8888bb" stroke-opacity="0.35"/>
    <line x1="1050.34" y1="32.2" x2="1050.34" y2="139" stroke="#8888bb" stroke-opacity="0.35"/>
    <rect x="877.03" y="0" width="209" height="139" fill="none" stroke="#8888bb"/>
    <rect x="0" y="282" width="148" height="45" fill="#2b2b40" stroke="#8888bb"/>
    <text fill="#e6e6e6" font-size="14" text-anchor="middle"><tspan x="74" y="309.4">organisation_roles</tspan></text>
    <rect x="1365.81" y="248.5" width="182" height="112" fill="#2b2b40" stroke="#8888bb"/>
    <text fill="#e6e6e6" font-size="14" text-anchor="middle"><tspan x="1456.81" y="269.5">workspace_members</tspan></text>
    <rect x="1366.31" y="280.7" width="181" height="26.6" fill="#1e1e1e"/>
    <text fill="#e6e6e6" font-size="13.3" text-anchor="start"><tspan x="1374.21" y="298.65">bigint</tspan></text>
    <text fill="#e6e6e6" font-size="13.3" text-anchor="start"><tspan x="1422.79" y="298.65">workspace_id</tspan></text>
    <text fill="#e6e6e6" font-size="13.3" text-anchor="start"><tspan x="1520.9" y="298.65">PK</tspan></text>
    <rect x="1366.31" y="307.3" width="181" height="26.6" fill="#25252e"/>
    <text fill="#e6e6e6" font-size="13.3" text-anchor="start"><tspan x="1374.21" y="325.25">bigint</tspan></text>
    <text fill="#e6e6e6" font-size="13.3" text-anchor="start"><tspan x="1422.79" y="325.25">user_id</tspan></text>
    <text fill="#e6e6e6" font-size="13.3" text-anchor="start"><tspan x="1520.9" y="325.25">PK</tspan></text>
    <rect x="1366.31" y="333.9" width="181" height="26.6" fill="#1e1e1e"/>
    <text fill="#e6e6e6" font-size="13.3" text-anchor="start"><tspan x="1374.21" y="351.86">text</tspan></text>
    <text fill="#e6e6e6" font-size="13.3" text-anchor="start"><tspan x="1422.79" y="351.86">role</tspan></text>
    <line x1="1365.81" y1="280.7" x2="1547.81" y2="280.7" stroke="#8888bb"/>
    <line x1="1365.81" y1="307.3" x2="1547.81" y2="307.3" stroke="#8888bb" stroke-opacity="0.35"/>
    <line x1="1365.81" y1="333.9" x2="1547.81" y2="333.9" stroke="#8888bb" stroke-opacity="0.35"/>
    <line x1="1414.39" y1="280.7" x2="1414.39" y2="360.5" stroke="#8888bb" stroke-opacity="0.35"/>
    <line x1="1512.5" y1="280.7" x2="1512.5" y2="360.5" stroke="#8888bb" stroke-opacity="0.35"/>
    <rect x="1365.81" y="248.5" width="182" height="112" fill="none" stroke="#8888bb"/>
    <rect x="1488.41" y="0" width="209" height="139" fill="#2b2b40" stroke="#8888bb"/>
    <text fill="#e6e6e6" font-size="14" text-anchor="middle"><tspan x="1592.91" y="21">workspaces</tspan></text>
    <rect x="1488.91" y="32.2" width="208" height="26.6" fill="#1e1e1e"/>
    <text fill="#e6e6e6" font-size="13.3" text-anchor="start"><tspan x="1496.81" y="50.15">bigint</tspan></text>
    <text fill="#e6e6e6" font-size="13.3" text-anchor="start"><tspan x="1585.3" y="50.15">id</tspan></text>
    <text fill="#e6e6e6" font-size="13.3" text-anchor="start"><tspan x="1670.85" y="50.15">PK</tspan></text>
    <rect x="1488.91" y="58.8" width="208" height="26.6" fill="#25252e"/>
    <text fill="#e6e6e6" font-size="13.3" text-anchor="start"><tspan x="1496.81" y="76.75">text</tspan></text>
    <text fill="#e6e6e6" font-size="13.3" text-anchor="start"><tspan x="1585.3" y="76.75">uuid</tspan></text>
    <rect x="1488.91" y="85.4" width="208" height="26.6" fill="#1e1e1e"/>
    <text fill="#e6e6e6" font-size="13.3" text-anchor="start"><tspan x="1496.81" y="103.35">text</tspan></text>
    <text fill="#e6e6e6" font-size="13.3" text-anchor="start"><tspan x="1585.3" y="103.35">name</tspan></text>
    <rect x="1488.91" y="112" width="208" height="26.6" fill="#25252e"/>
    <text fill="#e6e6e6" font-size="13.3" text-anchor="start"><tspan x="1496.81" y="129.95">timestamptz</tspan></text>
    <text fill="#e6e6e6" font-size="13.3" text-anchor="start"><tspan x="1585.3" y="129.95">archived_at</tspan></text>
    <line x1="1488.41" y1="32.2" x2="1697.41" y2="32.2" stroke="#8888bb"/>
    <line x1="1488.41" y1="58.8" x2="1697.41" y2="58.8" stroke="#8888bb" stroke-opacity="0.35"/>
    <line x1="1488.41" y1="85.4" x2="1697.41" y2="85.4" stroke="#8888bb" stroke-opacity="0.35"/>
    <line x1="1488.41" y1="112" x2="1697.41" y2="112" stroke="#8888bb" stroke-opacity="0.35"/>
    <line x1="1576.9" y1="32.2" x2="1576.9" y2="139" stroke="#8888bb" stroke-opacity="0.35"/>
    <line x1="1662.45" y1="32.2" x2="1662.45" y2="139" stroke="#8888bb" stroke-opacity="0.35"/>
    <rect x="1488.41" y="0" width="209" height="139" fill="none" stroke="#8888bb"/>
    <rect x="1833.27" y="282" width="148" height="45" fill="#2b2b40" stroke="#8888bb"/>
    <text fill="#e6e6e6" font-size="14" text-anchor="middle"><tspan x="1907.27" y="309.4">workspace_invites</tspan></text>
    <rect x="1133.81" y="235" width="182" height="139" fill="#2b2b40" stroke="#8888bb"/>
    <text fill="#e6e6e6" font-size="14" text-anchor="middle"><tspan x="1224.81" y="256">projects</tspan></text>
    <rect x="1134.31" y="267.2" width="181" height="26.6" fill="#1e1e1e"/>
    <text fill="#e6e6e6" font-size="13.3" text-anchor="start"><tspan x="1142.21" y="285.15">bigint</tspan></text>
    <text fill="#e6e6e6" font-size="13.3" text-anchor="start"><tspan x="1190.79" y="285.15">id</tspan></text>
    <text fill="#e6e6e6" font-size="13.3" text-anchor="start"><tspan x="1288.9" y="285.15">PK</tspan></text>
    <rect x="1134.31" y="293.8" width="181" height="26.6" fill="#25252e"/>
    <text fill="#e6e6e6" font-size="13.3" text-anchor="start"><tspan x="1142.21" y="311.75">bigint</tspan></text>
    <text fill="#e6e6e6" font-size="13.3" text-anchor="start"><tspan x="1190.79" y="311.75">workspace_id</tspan></text>
    <text fill="#e6e6e6" font-size="13.3" text-anchor="start"><tspan x="1288.9" y="311.75">FK</tspan></text>
    <rect x="1134.31" y="320.4" width="181" height="26.6" fill="#1e1e1e"/>
    <text fill="#e6e6e6" font-size="13.3" text-anchor="start"><tspan x="1142.21" y="338.36">text</tspan></text>
    <text fill="#e6e6e6" font-size="13.3" text-anchor="start"><tspan x="1190.79" y="338.36">key</tspan></text>
    <rect x="1134.31" y="347" width="181" height="26.6" fill="#25252e"/>
    <text fill="#e6e6e6" font-size="13.3" text-anchor="start"><tspan x="1142.21" y="364.96">bigint</tspan></text>
    <text fill="#e6e6e6" font-size="13.3" text-anchor="start"><tspan x="1190.79" y="364.96">next_number</tspan></text>
    <line x1="1133.81" y1="267.2" x2="1315.81" y2="267.2" stroke="#8888bb"/>
    <line x1="1133.81" y1="293.8" x2="1315.81" y2="293.8" stroke="#8888bb" stroke-opacity="0.35"/>
    <line x1="1133.81" y1="320.4" x2="1315.81" y2="320.4" stroke="#8888bb" stroke-opacity="0.35"/>
    <line x1="1133.81" y1="347" x2="1315.81" y2="347" stroke="#8888bb" stroke-opacity="0.35"/>
    <line x1="1182.39" y1="267.2" x2="1182.39" y2="374" stroke="#8888bb" stroke-opacity="0.35"/>
    <line x1="1280.5" y1="267.2" x2="1280.5" y2="374" stroke="#8888bb" stroke-opacity="0.35"/>
    <rect x="1133.81" y="235" width="182" height="139" fill="none" stroke="#8888bb"/>
    <rect x="618.67" y="732" width="158" height="192" fill="#2b2b40" stroke="#8888bb"/>
    <text fill="#e6e6e6" font-size="14" text-anchor="middle"><tspan x="697.67" y="753">issues</tspan></text>
    <rect x="619.17" y="764.2" width="157" height="26.6" fill="#1e1e1e"/>
    <text fill="#e6e6e6" font-size="13.3" text-anchor="start"><tspan x="627.07" y="782.15">bigint</tspan></text>
    <text fill="#e6e6e6" font-size="13.3" text-anchor="start"><tspan x="675.66" y="782.15">id</tspan></text>
    <text fill="#e6e6e6" font-size="13.3" text-anchor="start"><tspan x="750.12" y="782.15">PK</tspan></text>
    <rect x="619.17" y="790.8" width="157" height="26.6" fill="#25252e"/>
    <text fill="#e6e6e6" font-size="13.3" text-anchor="start"><tspan x="627.07" y="808.75">bigint</tspan></text>
    <text fill="#e6e6e6" font-size="13.3" text-anchor="start"><tspan x="675.66" y="808.75">project_id</tspan></text>
    <text fill="#e6e6e6" font-size="13.3" text-anchor="start"><tspan x="750.12" y="808.75">FK</tspan></text>
    <rect x="619.17" y="817.4" width="157" height="26.6" fill="#1e1e1e"/>
    <text fill="#e6e6e6" font-size="13.3" text-anchor="start"><tspan x="627.07" y="835.36">bigint</tspan></text>
    <text fill="#e6e6e6" font-size="13.3" text-anchor="start"><tspan x="675.66" y="835.36">number</tspan></text>
    <rect x="619.17" y="844" width="157" height="26.6" fill="#25252e"/>
    <text fill="#e6e6e6" font-size="13.3" text-anchor="start"><tspan x="627.07" y="861.96">text</tspan></text>
    <text fill="#e6e6e6" font-size="13.3" text-anchor="start"><tspan x="675.66" y="861.96">status</tspan></text>
    <rect x="619.17" y="870.6" width="157" height="26.6" fill="#1e1e1e"/>
    <text fill="#e6e6e6" font-size="13.3" text-anchor="start"><tspan x="627.07" y="888.56">date</tspan></text>
    <text fill="#e6e6e6" font-size="13.3" text-anchor="start"><tspan x="675.66" y="888.56">due_date</tspan></text>
    <rect x="619.17" y="897.2" width="157" height="26.6" fill="#25252e"/>
    <text fill="#e6e6e6" font-size="13.3" text-anchor="start"><tspan x="627.07" y="915.16">bigint</tspan></text>
    <text fill="#e6e6e6" font-size="13.3" text-anchor="start"><tspan x="675.66" y="915.16">cycle_id</tspan></text>
    <text fill="#e6e6e6" font-size="13.3" text-anchor="start"><tspan x="750.12" y="915.16">FK</tspan></text>
    <line x1="618.67" y1="764.2" x2="776.67" y2="764.2" stroke="#8888bb"/>
    <line x1="618.67" y1="790.8" x2="776.67" y2="790.8" stroke="#8888bb" stroke-opacity="0.35"/>
    <line x1="618.67" y1="817.4" x2="776.67" y2="817.4" stroke="#8888bb" stroke-opacity="0.35"/>
    <line x1="618.67" y1="844" x2="776.67" y2="844" stroke="#8888bb" stroke-opacity="0.35"/>
    <line x1="618.67" y1="870.6" x2="776.67" y2="870.6" stroke="#8888bb" stroke-opacity="0.35"/>
    <line x1="618.67" y1="897.2" x2="776.67" y2="897.2" stroke="#8888bb" stroke-opacity="0.35"/>
    <line x1="667.26" y1="764.2" x2="667.26" y2="924" stroke="#8888bb" stroke-opacity="0.35"/>
    <line x1="741.72" y1="764.2" x2="741.72" y2="924" stroke="#8888bb" stroke-opacity="0.35"/>
    <rect x="618.67" y="732" width="158" height="192" fill="none" stroke="#8888bb"/>
    <rect x="807.04" y="530.5" width="98" height="45" fill="#2b2b40" stroke="#8888bb"/>
    <text fill="#e6e6e6" font-size="14" text-anchor="middle"><tspan x="856.04" y="557.9">cycles</tspan></text>
    <rect x="955.04" y="530.5" width="101" height="45" fill="#2b2b40" stroke="#8888bb"/>
    <text fill="#e6e6e6" font-size="14" text-anchor="middle"><tspan x="1005.54" y="557.9">milestones</tspan></text>
    <rect x="1305.04" y="483.5" width="158" height="139" fill="#2b2b40" stroke="#8888bb"/>
    <text fill="#e6e6e6" font-size="14" text-anchor="middle"><tspan x="1384.04" y="504.5">pages</tspan></text>
    <rect x="1305.54" y="515.7" width="157" height="26.6" fill="#1e1e1e"/>
    <text fill="#e6e6e6" font-size="13.3" text-anchor="start"><tspan x="1313.44" y="533.65">bigint</tspan></text>
    <text fill="#e6e6e6" font-size="13.3" text-anchor="start"><tspan x="1362.03" y="533.65">id</tspan></text>
    <text fill="#e6e6e6" font-size="13.3" text-anchor="start"><tspan x="1436.48" y="533.65">PK</tspan></text>
    <rect x="1305.54" y="542.3" width="157" height="26.6" fill="#25252e"/>
    <text fill="#e6e6e6" font-size="13.3" text-anchor="start"><tspan x="1313.44" y="560.25">bigint</tspan></text>
    <text fill="#e6e6e6" font-size="13.3" text-anchor="start"><tspan x="1362.03" y="560.25">project_id</tspan></text>
    <text fill="#e6e6e6" font-size="13.3" text-anchor="start"><tspan x="1436.48" y="560.25">FK</tspan></text>
    <rect x="1305.54" y="568.9" width="157" height="26.6" fill="#1e1e1e"/>
    <text fill="#e6e6e6" font-size="13.3" text-anchor="start"><tspan x="1313.44" y="586.86">bigint</tspan></text>
    <text fill="#e6e6e6" font-size="13.3" text-anchor="start"><tspan x="1362.03" y="586.86">parent_id</tspan></text>
    <text fill="#e6e6e6" font-size="13.3" text-anchor="start"><tspan x="1436.48" y="586.86">FK</tspan></text>
    <rect x="1305.54" y="595.5" width="157" height="26.6" fill="#25252e"/>
    <text fill="#e6e6e6" font-size="13.3" text-anchor="start"><tspan x="1313.44" y="613.46">bigint</tspan></text>
    <text fill="#e6e6e6" font-size="13.3" text-anchor="start"><tspan x="1362.03" y="613.46">revision</tspan></text>
    <line x1="1305.04" y1="515.7" x2="1463.04" y2="515.7" stroke="#8888bb"/>
    <line x1="1305.04" y1="542.3" x2="1463.04" y2="542.3" stroke="#8888bb" stroke-opacity="0.35"/>
    <line x1="1305.04" y1="568.9" x2="1463.04" y2="568.9" stroke="#8888bb" stroke-opacity="0.35"/>
    <line x1="1305.04" y1="595.5" x2="1463.04" y2="595.5" stroke="#8888bb" stroke-opacity="0.35"/>
    <line x1="1353.63" y1="515.7" x2="1353.63" y2="622.5" stroke="#8888bb" stroke-opacity="0.35"/>
    <line x1="1428.08" y1="515.7" x2="1428.08" y2="622.5" stroke="#8888bb" stroke-opacity="0.35"/>
    <rect x="1305.04" y="483.5" width="158" height="139" fill="none" stroke="#8888bb"/>
    <rect x="1157.04" y="530.5" width="98" height="45" fill="#2b2b40" stroke="#8888bb"/>
    <text fill="#e6e6e6" font-size="14" text-anchor="middle"><tspan x="1206.04" y="557.9">labels</tspan></text>
    <rect x="614.11" y="1020" width="99" height="45" fill="#2b2b40" stroke="#8888bb"/>
    <text fill="#e6e6e6" font-size="14" text-anchor="middle"><tspan x="663.61" y="1047.4">comments</tspan></text>
    <rect x="793.97" y="1020" width="111" height="45" fill="#2b2b40" stroke="#8888bb"/>
    <text fill="#e6e6e6" font-size="14" text-anchor="middle"><tspan x="849.47" y="1047.4">issue_labels</tspan></text>
    <rect x="807.04" y="282" width="98" height="45" fill="#2b2b40" stroke="#8888bb"/>
    <text fill="#e6e6e6" font-size="14" text-anchor="middle"><tspan x="856.04" y="309.4">sessions</tspan></text>
    <rect x="1630.77" y="470" width="202" height="166" fill="#2b2b40" stroke="#8888bb"/>
    <text fill="#e6e6e6" font-size="14" text-anchor="middle"><tspan x="1731.77" y="491">api_tokens</tspan></text>
    <rect x="1631.27" y="502.2" width="201" height="26.6" fill="#1e1e1e"/>
    <text fill="#e6e6e6" font-size="13.3" text-anchor="start"><tspan x="1639.17" y="520.15">bigint</tspan></text>
    <text fill="#e6e6e6" font-size="13.3" text-anchor="start"><tspan x="1727.66" y="520.15">id</tspan></text>
    <text fill="#e6e6e6" font-size="13.3" text-anchor="start"><tspan x="1805.81" y="520.15">PK</tspan></text>
    <rect x="1631.27" y="528.8" width="201" height="26.6" fill="#25252e"/>
    <text fill="#e6e6e6" font-size="13.3" text-anchor="start"><tspan x="1639.17" y="546.75">bigint</tspan></text>
    <text fill="#e6e6e6" font-size="13.3" text-anchor="start"><tspan x="1727.66" y="546.75">user_id</tspan></text>
    <text fill="#e6e6e6" font-size="13.3" text-anchor="start"><tspan x="1805.81" y="546.75">FK</tspan></text>
    <rect x="1631.27" y="555.4" width="201" height="26.6" fill="#1e1e1e"/>
    <text fill="#e6e6e6" font-size="13.3" text-anchor="start"><tspan x="1639.17" y="573.35">text</tspan></text>
    <text fill="#e6e6e6" font-size="13.3" text-anchor="start"><tspan x="1727.66" y="573.35">reach</tspan></text>
    <rect x="1631.27" y="582" width="201" height="26.6" fill="#25252e"/>
    <text fill="#e6e6e6" font-size="13.3" text-anchor="start"><tspan x="1639.17" y="599.95">text</tspan></text>
    <text fill="#e6e6e6" font-size="13.3" text-anchor="start"><tspan x="1727.66" y="599.95">permits</tspan></text>
    <rect x="1631.27" y="608.6" width="201" height="26.6" fill="#1e1e1e"/>
    <text fill="#e6e6e6" font-size="13.3" text-anchor="start"><tspan x="1639.17" y="626.55">timestamptz</tspan></text>
    <text fill="#e6e6e6" font-size="13.3" text-anchor="start"><tspan x="1727.66" y="626.55">expires_at</tspan></text>
    <line x1="1630.77" y1="502.2" x2="1832.77" y2="502.2" stroke="#8888bb"/>
    <line x1="1630.77" y1="528.8" x2="1832.77" y2="528.8" stroke="#8888bb" stroke-opacity="0.35"/>
    <line x1="1630.77" y1="555.4" x2="1832.77" y2="555.4" stroke="#8888bb" stroke-opacity="0.35"/>
    <line x1="1630.77" y1="582" x2="1832.77" y2="582" stroke="#8888bb" stroke-opacity="0.35"/>
    <line x1="1630.77" y1="608.6" x2="1832.77" y2="608.6" stroke="#8888bb" stroke-opacity="0.35"/>
    <line x1="1719.26" y1="502.2" x2="1719.26" y2="636" stroke="#8888bb" stroke-opacity="0.35"/>
    <line x1="1797.41" y1="502.2" x2="1797.41" y2="636" stroke="#8888bb" stroke-opacity="0.35"/>
    <rect x="1630.77" y="470" width="202" height="166" fill="none" stroke="#8888bb"/>
    <rect x="955.04" y="282" width="118" height="45" fill="#2b2b40" stroke="#8888bb"/>
    <text fill="#e6e6e6" font-size="14" text-anchor="middle"><tspan x="1014.04" y="309.4">oauth_tokens</tspan></text>
    <line x1="899.89" y1="147" x2="913.89" y2="147" stroke="#bbbbbb" stroke-width="1.3"/>
    <line x1="899.89" y1="153" x2="913.89" y2="153" stroke="#bbbbbb" stroke-width="1.3"/>
    <line x1="81" y1="274" x2="67" y2="274" stroke="#bbbbbb" stroke-width="1.3"/>
    <circle cx="74" cy="262" r="5" fill="#1e1e1e" stroke="#bbbbbb" stroke-width="1.3"/>
    <line x1="1019.32" y1="147" x2="1033.32" y2="147" stroke="#bbbbbb" stroke-width="1.3"/>
    <line x1="1019.32" y1="153" x2="1033.32" y2="153" stroke="#bbbbbb" stroke-width="1.3"/>
    <path d="M1434.47,248.5 L1426.47,234.5 M1418.47,248.5 L1426.47,234.5 M1426.47,248.5 L1426.47,234.5" fill="none" stroke="#bbbbbb" stroke-width="1.3"/>
    <circle cx="1426.47" cy="225.5" r="5" fill="#1e1e1e" stroke="#bbbbbb" stroke-width="1.3"/>
    <line x1="1565.01" y1="147" x2="1579.01" y2="147" stroke="#bbbbbb" stroke-width="1.3"/>
    <line x1="1565.01" y1="153" x2="1579.01" y2="153" stroke="#bbbbbb" stroke-width="1.3"/>
    <path d="M1495.14,248.5 L1487.14,234.5 M1479.14,248.5 L1487.14,234.5 M1487.14,248.5 L1487.14,234.5" fill="none" stroke="#bbbbbb" stroke-width="1.3"/>
    <circle cx="1487.14" cy="225.5" r="5" fill="#1e1e1e" stroke="#bbbbbb" stroke-width="1.3"/>
    <line x1="1648.61" y1="147" x2="1662.61" y2="147" stroke="#bbbbbb" stroke-width="1.3"/>
    <line x1="1648.61" y1="153" x2="1662.61" y2="153" stroke="#bbbbbb" stroke-width="1.3"/>
    <path d="M1915.27,282 L1907.27,268 M1899.27,282 L1907.27,268 M1907.27,282 L1907.27,268" fill="none" stroke="#bbbbbb" stroke-width="1.3"/>
    <circle cx="1907.27" cy="259" r="5" fill="#1e1e1e" stroke="#bbbbbb" stroke-width="1.3"/>
    <line x1="1523.21" y1="147" x2="1537.21" y2="147" stroke="#bbbbbb" stroke-width="1.3"/>
    <line x1="1523.21" y1="153" x2="1537.21" y2="153" stroke="#bbbbbb" stroke-width="1.3"/>
    <path d="M1232.81,235 L1224.81,221 M1216.81,235 L1224.81,221 M1224.81,235 L1224.81,221" fill="none" stroke="#bbbbbb" stroke-width="1.3"/>
    <circle cx="1224.81" cy="212" r="5" fill="#1e1e1e" stroke="#bbbbbb" stroke-width="1.3"/>
    <line x1="1152.81" y1="382" x2="1166.81" y2="382" stroke="#bbbbbb" stroke-width="1.3"/>
    <line x1="1152.81" y1="388" x2="1166.81" y2="388" stroke="#bbbbbb" stroke-width="1.3"/>
    <path d="M748.27,732 L740.27,718 M732.27,732 L740.27,718 M740.27,732 L740.27,718" fill="none" stroke="#bbbbbb" stroke-width="1.3"/>
    <circle cx="740.27" cy="709" r="5" fill="#1e1e1e" stroke="#bbbbbb" stroke-width="1.3"/>
    <line x1="1178.81" y1="382" x2="1192.81" y2="382" stroke="#bbbbbb" stroke-width="1.3"/>
    <line x1="1178.81" y1="388" x2="1192.81" y2="388" stroke="#bbbbbb" stroke-width="1.3"/>
    <path d="M864.04,530.5 L856.04,516.5 M848.04,530.5 L856.04,516.5 M856.04,530.5 L856.04,516.5" fill="none" stroke="#bbbbbb" stroke-width="1.3"/>
    <circle cx="856.04" cy="507.5" r="5" fill="#1e1e1e" stroke="#bbbbbb" stroke-width="1.3"/>
    <line x1="1204.81" y1="382" x2="1218.81" y2="382" stroke="#bbbbbb" stroke-width="1.3"/>
    <line x1="1204.81" y1="388" x2="1218.81" y2="388" stroke="#bbbbbb" stroke-width="1.3"/>
    <path d="M1013.54,530.5 L1005.54,516.5 M997.54,530.5 L1005.54,516.5 M1005.54,530.5 L1005.54,516.5" fill="none" stroke="#bbbbbb" stroke-width="1.3"/>
    <circle cx="1005.54" cy="507.5" r="5" fill="#1e1e1e" stroke="#bbbbbb" stroke-width="1.3"/>
    <line x1="1256.81" y1="382" x2="1270.81" y2="382" stroke="#bbbbbb" stroke-width="1.3"/>
    <line x1="1256.81" y1="388" x2="1270.81" y2="388" stroke="#bbbbbb" stroke-width="1.3"/>
    <path d="M1392.04,483.5 L1384.04,469.5 M1376.04,483.5 L1384.04,469.5 M1384.04,483.5 L1384.04,469.5" fill="none" stroke="#bbbbbb" stroke-width="1.3"/>
    <circle cx="1384.04" cy="460.5" r="5" fill="#1e1e1e" stroke="#bbbbbb" stroke-width="1.3"/>
    <line x1="1230.81" y1="382" x2="1244.81" y2="382" stroke="#bbbbbb" stroke-width="1.3"/>
    <line x1="1230.81" y1="388" x2="1244.81" y2="388" stroke="#bbbbbb" stroke-width="1.3"/>
    <path d="M1214.04,530.5 L1206.04,516.5 M1198.04,530.5 L1206.04,516.5 M1206.04,530.5 L1206.04,516.5" fill="none" stroke="#bbbbbb" stroke-width="1.3"/>
    <circle cx="1206.04" cy="507.5" r="5" fill="#1e1e1e" stroke="#bbbbbb" stroke-width="1.3"/>
    <line x1="849.04" y1="583.5" x2="863.04" y2="583.5" stroke="#bbbbbb" stroke-width="1.3"/>
    <circle cx="856.04" cy="595.5" r="5" fill="#1e1e1e" stroke="#bbbbbb" stroke-width="1.3"/>
    <path d="M663.07,732 L655.07,718 M647.07,732 L655.07,718 M655.07,732 L655.07,718" fill="none" stroke="#bbbbbb" stroke-width="1.3"/>
    <circle cx="655.07" cy="709" r="5" fill="#1e1e1e" stroke="#bbbbbb" stroke-width="1.3"/>
    <line x1="998.54" y1="583.5" x2="1012.54" y2="583.5" stroke="#bbbbbb" stroke-width="1.3"/>
    <circle cx="1005.54" cy="595.5" r="5" fill="#1e1e1e" stroke="#bbbbbb" stroke-width="1.3"/>
    <path d="M719.87,732 L711.87,718 M703.87,732 L711.87,718 M711.87,732 L711.87,718" fill="none" stroke="#bbbbbb" stroke-width="1.3"/>
    <circle cx="711.87" cy="709" r="5" fill="#1e1e1e" stroke="#bbbbbb" stroke-width="1.3"/>
    <line x1="787.13" y1="815.89" x2="779.93" y2="803.88" stroke="#bbbbbb" stroke-width="1.3"/>
    <circle cx="793.82" cy="803.71" r="5" fill="#1e1e1e" stroke="#bbbbbb" stroke-width="1.3"/>
    <path d="M772.56,848.86 L788.68,849.2 M780.79,835.14 L788.68,849.2 M776.67,842 L788.68,849.2" fill="none" stroke="#bbbbbb" stroke-width="1.3"/>
    <circle cx="796.4" cy="853.83" r="5" fill="#1e1e1e" stroke="#bbbbbb" stroke-width="1.3"/>
    <line x1="667.01" y1="932" x2="681.01" y2="932" stroke="#bbbbbb" stroke-width="1.3"/>
    <line x1="667.01" y1="938" x2="681.01" y2="938" stroke="#bbbbbb" stroke-width="1.3"/>
    <path d="M671.61,1020 L663.61,1006 M655.61,1020 L663.61,1006 M663.61,1020 L663.61,1006" fill="none" stroke="#bbbbbb" stroke-width="1.3"/>
    <circle cx="663.61" cy="997" r="5" fill="#1e1e1e" stroke="#bbbbbb" stroke-width="1.3"/>
    <line x1="714.34" y1="932" x2="728.34" y2="932" stroke="#bbbbbb" stroke-width="1.3"/>
    <line x1="714.34" y1="938" x2="728.34" y2="938" stroke="#bbbbbb" stroke-width="1.3"/>
    <path d="M838.97,1020 L830.97,1006 M822.97,1020 L830.97,1006 M830.97,1020 L830.97,1006" fill="none" stroke="#bbbbbb" stroke-width="1.3"/>
    <circle cx="830.97" cy="997" r="5" fill="#1e1e1e" stroke="#bbbbbb" stroke-width="1.3"/>
    <line x1="1199.04" y1="583.5" x2="1213.04" y2="583.5" stroke="#bbbbbb" stroke-width="1.3"/>
    <line x1="1199.04" y1="589.5" x2="1213.04" y2="589.5" stroke="#bbbbbb" stroke-width="1.3"/>
    <path d="M875.97,1020 L867.97,1006 M859.97,1020 L867.97,1006 M867.97,1020 L867.97,1006" fill="none" stroke="#bbbbbb" stroke-width="1.3"/>
    <circle cx="867.97" cy="997" r="5" fill="#1e1e1e" stroke="#bbbbbb" stroke-width="1.3"/>
    <line x1="1473.5" y1="540.89" x2="1466.3" y2="528.88" stroke="#bbbbbb" stroke-width="1.3"/>
    <circle cx="1480.19" cy="528.71" r="5" fill="#1e1e1e" stroke="#bbbbbb" stroke-width="1.3"/>
    <path d="M1458.92,573.86 L1475.04,574.2 M1467.16,560.14 L1475.04,574.2 M1463.04,567 L1475.04,574.2" fill="none" stroke="#bbbbbb" stroke-width="1.3"/>
    <circle cx="1482.76" cy="578.83" r="5" fill="#1e1e1e" stroke="#bbbbbb" stroke-width="1.3"/>
    <line x1="929.75" y1="147" x2="943.75" y2="147" stroke="#bbbbbb" stroke-width="1.3"/>
    <circle cx="936.75" cy="159" r="5" fill="#1e1e1e" stroke="#bbbbbb" stroke-width="1.3"/>
    <path d="M691.47,732 L683.47,718 M675.47,732 L683.47,718 M683.47,732 L683.47,718" fill="none" stroke="#bbbbbb" stroke-width="1.3"/>
    <circle cx="683.47" cy="709" r="5" fill="#1e1e1e" stroke="#bbbbbb" stroke-width="1.3"/>
    <line x1="959.6" y1="147" x2="973.6" y2="147" stroke="#bbbbbb" stroke-width="1.3"/>
    <line x1="959.6" y1="153" x2="973.6" y2="153" stroke="#bbbbbb" stroke-width="1.3"/>
    <path d="M864.04,282 L856.04,268 M848.04,282 L856.04,268 M856.04,282 L856.04,268" fill="none" stroke="#bbbbbb" stroke-width="1.3"/>
    <circle cx="856.04" cy="259" r="5" fill="#1e1e1e" stroke="#bbbbbb" stroke-width="1.3"/>
    <line x1="1049.18" y1="147" x2="1063.18" y2="147" stroke="#bbbbbb" stroke-width="1.3"/>
    <line x1="1049.18" y1="153" x2="1063.18" y2="153" stroke="#bbbbbb" stroke-width="1.3"/>
    <path d="M1689.27,470 L1681.27,456 M1673.27,470 L1681.27,456 M1681.27,470 L1681.27,456" fill="none" stroke="#bbbbbb" stroke-width="1.3"/>
    <circle cx="1681.27" cy="447" r="5" fill="#1e1e1e" stroke="#bbbbbb" stroke-width="1.3"/>
    <line x1="989.46" y1="147" x2="1003.46" y2="147" stroke="#bbbbbb" stroke-width="1.3"/>
    <line x1="989.46" y1="153" x2="1003.46" y2="153" stroke="#bbbbbb" stroke-width="1.3"/>
    <path d="M1022.04,282 L1014.04,268 M1006.04,282 L1014.04,268 M1014.04,282 L1014.04,268" fill="none" stroke="#bbbbbb" stroke-width="1.3"/>
    <circle cx="1014.04" cy="259" r="5" fill="#1e1e1e" stroke="#bbbbbb" stroke-width="1.3"/>
    <line x1="1606.81" y1="147" x2="1620.81" y2="147" stroke="#bbbbbb" stroke-width="1.3"/>
    <circle cx="1613.81" cy="159" r="5" fill="#1e1e1e" stroke="#bbbbbb" stroke-width="1.3"/>
    <path d="M1790.27,470 L1782.27,456 M1774.27,470 L1782.27,456 M1782.27,470 L1782.27,456" fill="none" stroke="#bbbbbb" stroke-width="1.3"/>
    <circle cx="1782.27" cy="447" r="5" fill="#1e1e1e" stroke="#bbbbbb" stroke-width="1.3"/>
    <line x1="1282.81" y1="382" x2="1296.81" y2="382" stroke="#bbbbbb" stroke-width="1.3"/>
    <circle cx="1289.81" cy="394" r="5" fill="#1e1e1e" stroke="#bbbbbb" stroke-width="1.3"/>
    <path d="M1739.77,470 L1731.77,456 M1723.77,470 L1731.77,456 M1731.77,470 L1731.77,456" fill="none" stroke="#bbbbbb" stroke-width="1.3"/>
    <circle cx="1731.77" cy="447" r="5" fill="#1e1e1e" stroke="#bbbbbb" stroke-width="1.3"/>
    <rect x="460.89" y="200.31" width="59.12" height="20.38" rx="2" fill="#3a3a3a" fill-opacity="0.85"/>
    <text fill="#e6e6e6" font-size="12.6" text-anchor="middle"><tspan x="490.44" y="214.91">may hold</tspan></text>
    <rect x="1211.19" y="183.56" width="30.4" height="20.38" rx="2" fill="#3a3a3a" fill-opacity="0.85"/>
    <text fill="#e6e6e6" font-size="12.6" text-anchor="middle"><tspan x="1226.4" y="198.16">is in</tspan></text>
    <rect x="1515.42" y="183.56" width="28.31" height="20.38" rx="2" fill="#3a3a3a" fill-opacity="0.85"/>
    <text fill="#e6e6e6" font-size="12.6" text-anchor="middle"><tspan x="1529.58" y="198.16">has</tspan></text>
    <rect x="1760.63" y="200.31" width="41.62" height="20.38" rx="2" fill="#3a3a3a" fill-opacity="0.85"/>
    <text fill="#e6e6e6" font-size="12.6" text-anchor="middle"><tspan x="1781.44" y="214.91">sends</tspan></text>
    <rect x="1358.45" y="176.81" width="38.11" height="20.38" rx="2" fill="#3a3a3a" fill-opacity="0.85"/>
    <text fill="#e6e6e6" font-size="12.6" text-anchor="middle"><tspan x="1377.51" y="191.41">holds</tspan></text>
    <rect x="1069.98" y="628.53" width="38.11" height="20.38" rx="2" fill="#3a3a3a" fill-opacity="0.85"/>
    <text fill="#e6e6e6" font-size="12.6" text-anchor="middle"><tspan x="1089.03" y="643.13">holds</tspan></text>
    <rect x="998.02" y="442.06" width="45.81" height="20.38" rx="2" fill="#3a3a3a" fill-opacity="0.85"/>
    <text fill="#e6e6e6" font-size="12.6" text-anchor="middle"><tspan x="1020.92" y="456.66">runs in</tspan></text>
    <rect x="1084.37" y="442.06" width="48.61" height="20.38" rx="2" fill="#3a3a3a" fill-opacity="0.85"/>
    <text fill="#e6e6e6" font-size="12.6" text-anchor="middle"><tspan x="1108.67" y="456.66">aims at</tspan></text>
    <rect x="1304.87" y="418.56" width="38.11" height="20.38" rx="2" fill="#3a3a3a" fill-opacity="0.85"/>
    <text fill="#e6e6e6" font-size="12.6" text-anchor="middle"><tspan x="1323.92" y="433.16">holds</tspan></text>
    <rect x="1197.61" y="442.06" width="48.62" height="20.38" rx="2" fill="#3a3a3a" fill-opacity="0.85"/>
    <text fill="#e6e6e6" font-size="12.6" text-anchor="middle"><tspan x="1221.92" y="456.66">defines</tspan></text>
    <rect x="728.1" y="643.56" width="54.92" height="20.38" rx="2" fill="#3a3a3a" fill-opacity="0.85"/>
    <text fill="#e6e6e6" font-size="12.6" text-anchor="middle"><tspan x="755.56" y="658.16">contains</tspan></text>
    <rect x="835.45" y="643.56" width="46.52" height="20.38" rx="2" fill="#3a3a3a" fill-opacity="0.85"/>
    <text fill="#e6e6e6" font-size="12.6" text-anchor="middle"><tspan x="858.71" y="658.16">groups</tspan></text>
    <rect x="822.67" y="817.81" width="57.73" height="20.38" rx="2" fill="#3a3a3a" fill-opacity="0.85"/>
    <text fill="#e6e6e6" font-size="12.6" text-anchor="middle"><tspan x="851.54" y="832.41">parent of</tspan></text>
    <rect x="654.65" y="961.81" width="28.31" height="20.38" rx="2" fill="#3a3a3a" fill-opacity="0.85"/>
    <text fill="#e6e6e6" font-size="12.6" text-anchor="middle"><tspan x="668.81" y="976.41">has</tspan></text>
    <rect x="752.89" y="961.81" width="46.53" height="20.38" rx="2" fill="#3a3a3a" fill-opacity="0.85"/>
    <text fill="#e6e6e6" font-size="12.6" text-anchor="middle"><tspan x="776.15" y="976.41">tagged</tspan></text>
    <rect x="929" y="691.68" width="31.81" height="20.38" rx="2" fill="#3a3a3a" fill-opacity="0.85"/>
    <text fill="#e6e6e6" font-size="12.6" text-anchor="middle"><tspan x="944.91" y="706.28">tags</tspan></text>
    <rect x="1509.04" y="542.81" width="57.73" height="20.38" rx="2" fill="#3a3a3a" fill-opacity="0.85"/>
    <text fill="#e6e6e6" font-size="12.6" text-anchor="middle"><tspan x="1537.91" y="557.41">parent of</tspan></text>
    <rect x="722.73" y="331.93" width="58.43" height="20.38" rx="2" fill="#3a3a3a" fill-opacity="0.85"/>
    <text fill="#e6e6e6" font-size="12.6" text-anchor="middle"><tspan x="751.95" y="346.53">assigned</tspan></text>
    <rect x="873.71" y="200.31" width="75.23" height="20.38" rx="2" fill="#3a3a3a" fill-opacity="0.85"/>
    <text fill="#e6e6e6" font-size="12.6" text-anchor="middle"><tspan x="911.32" y="214.91">signed in by</tspan></text>
    <rect x="1465.12" y="207.78" width="37.41" height="20.38" rx="2" fill="#3a3a3a" fill-opacity="0.85"/>
    <text fill="#e6e6e6" font-size="12.6" text-anchor="middle"><tspan x="1483.82" y="222.38">owns</tspan></text>
    <rect x="972.88" y="200.31" width="64.74" height="20.38" rx="2" fill="#3a3a3a" fill-opacity="0.85"/>
    <text fill="#e6e6e6" font-size="12.6" text-anchor="middle"><tspan x="1005.25" y="214.91">granted to</tspan></text>
    <rect x="1761.54" y="222.69" width="39.51" height="20.38" rx="2" fill="#3a3a3a" fill-opacity="0.85"/>
    <text fill="#e6e6e6" font-size="12.6" text-anchor="middle"><tspan x="1781.29" y="237.29">reach</tspan></text>
    <rect x="1491.03" y="411.81" width="39.51" height="20.38" rx="2" fill="#3a3a3a" fill-opacity="0.85"/>
    <text fill="#e6e6e6" font-size="12.6" text-anchor="middle"><tspan x="1510.79" y="426.41">reach</tspan></text>
  </g>
</svg>
