<svg role="img" xmlns="http://www.w3.org/2000/svg" width="361" height="282.6" viewBox="0 0 361 282.6" font-family="sans-serif" font-size="14">
  <defs><marker id="m1qwleu2-seq-arrow" viewBox="0 0 10 10" refX="9" refY="5" markerUnits="userSpaceOnUse" markerWidth="10" markerHeight="10" orient="auto-start-reverse"><path d="M0,0 L10,5 L0,10 z" fill="#bbbbbb"/></marker><marker id="m1qwleu2-seq-open" viewBox="0 0 10 10" refX="9" refY="5" markerUnits="userSpaceOnUse" markerWidth="11" markerHeight="11" orient="auto-start-reverse"><path d="M1,1 L9,5 L1,9" fill="none" stroke="#bbbbbb" stroke-width="1.5"/></marker></defs>
  <g transform="translate(41,16)">
    <line x1="65" y1="52" x2="65" y2="198.6" stroke="#8888bb"/>
    <line x1="239" y1="52" x2="239" y2="198.6" stroke="#8888bb"/>
    <rect x="-25" y="70" width="80" height="32.2" fill="#4a4630" stroke="#8a8350"/>
    <text x="15" y="91" fill="#eeeadc" text-anchor="middle">l</text>
    <rect x="75" y="112.2" width="80" height="32.2" fill="#4a4630" stroke="#8a8350"/>
    <text x="115" y="133.2" fill="#eeeadc" text-anchor="middle">r</text>
    <rect x="41" y="154.4" width="222" height="32.2" fill="#4a4630" stroke="#8a8350"/>
    <text x="152" y="175.4" fill="#eeeadc" text-anchor="middle">o</text>
    <rect x="0" y="0" width="130" height="52" rx="3" fill="#2b2b40" stroke="#8888bb"/>
    <text x="65" y="30.9" fill="#e6e6e6" text-anchor="middle">A</text>
    <rect x="0" y="198.6" width="130" height="52" rx="3" fill="#2b2b40" stroke="#8888bb"/>
    <text x="65" y="229.5" fill="#e6e6e6" text-anchor="middle">A</text>
    <rect x="174" y="0" width="130" height="52" rx="3" fill="#2b2b40" stroke="#8888bb"/>
    <text x="239" y="30.9" fill="#e6e6e6" text-anchor="middle">B</text>
    <rect x="174" y="198.6" width="130" height="52" rx="3" fill="#2b2b40" stroke="#8888bb"/>
    <text x="239" y="229.5" fill="#e6e6e6" text-anchor="middle">B</text>
  </g>
</svg>
